<?xml version="1.0" encoding="iso-8859-1"?>
<!-- Generator: Adobe Illustrator 19.0.0, SVG Export Plug-In . SVG Version: 6.00 Build 0)  -->
<svg version="1.1" id="Capa_1" xmlns="http://www.w3.org/2000/svg" xmlns:xlink="http://www.w3.org/1999/xlink" x="0px" y="0px"
	 viewBox="0 0 512 512" style="enable-background:new 0 0 512 512;" xml:space="preserve">
<g>
	<g>
		<path d="M460.943,147.656L310.318,5.089C306.859,1.822,302.291,0,297.53,0H63.845C53.574,0,45.249,8.325,45.249,18.596v474.809
			c0,10.271,8.325,18.596,18.596,18.596h384.31c10.271,0,18.596-8.325,18.596-18.596V161.162
			C466.751,156.055,464.649,151.17,460.943,147.656z M429.559,474.809H82.441V37.191h207.689l139.43,131.973V474.809z" fill="#fff"/>
	</g>
</g>
<g>
	<g>
		<path d="M379.332,316.566l-45.249-53.927c-6.595-7.86-18.323-8.901-26.201-2.287c-7.86,6.601-8.889,18.329-2.287,26.201
			l35.22,41.97l-35.214,41.97c-6.608,7.872-5.579,19.606,2.287,26.201c3.49,2.926,7.73,4.351,11.945,4.351
			c5.306,0,10.581-2.256,14.25-6.645l45.249-53.927C385.141,333.562,385.141,323.477,379.332,316.566z" fill="#fff"/>
	</g>
</g>
<g>
	<g>
		<path d="M206.405,370.493l-35.226-41.97l35.22-41.964c6.601-7.872,5.579-19.606-2.293-26.201
			c-7.866-6.602-19.594-5.573-26.201,2.287l-45.249,53.927c-5.802,6.911-5.802,16.996,0,23.908l45.249,53.927
			c3.682,4.382,8.951,6.639,14.257,6.639c4.221,0,8.461-1.426,11.951-4.351C211.978,390.093,213.007,378.366,206.405,370.493z " fill="#fff"/>
	</g>
</g>
<g>
	<g>
		<path d="M272.426,220.259c-10.066-1.531-19.631,5.442-21.174,15.596l-27.274,179.758c-1.543,10.159,5.442,19.637,15.596,21.174
			c0.948,0.143,1.884,0.211,2.814,0.211c9.037,0,16.959-6.595,18.36-15.806l27.274-179.758
			C289.565,231.28,282.579,221.803,272.426,220.259z" fill="#fff"/>
	</g>
</g>
<g>
	<g>
		<path d="M316.126,142.567V18.596h-37.191v142.567c0,10.271,8.325,18.596,18.596,18.596h150.625v-37.191H316.126z" fill="#fff"/>
	</g>
</g>
<g>
</g>
<g>
</g>
<g>
</g>
<g>
</g>
<g>
</g>
<g>
</g>
<g>
</g>
<g>
</g>
<g>
</g>
<g>
</g>
<g>
</g>
<g>
</g>
<g>
</g>
<g>
</g>
<g>
</g>
</svg>
